<svg width="512" height="512" xmlns="http://www.w3.org/2000/svg" xmlns:xlink="http://www.w3.org/1999/xlink" fill-rule="evenodd" clip-rule="evenodd" overflow="hidden"><g><path d="M232.5-0.5C247.833-0.5 263.167-0.5 278.5-0.5 282.216 2.05182 285.049 5.38515 287 9.5 287.5 25.1631 287.667 40.8298 287.5 56.5 300.833 56.5 314.167 56.5 327.5 56.5 336.632 32.256 354.299 21.0893 380.5 23 400.356 26.5253 413.856 37.692 421 56.5 427.027 79.4172 420.861 98.2505 402.5 113 381.44 125.106 361.107 124.106 341.5 110 334.757 103.846 329.757 96.513 326.5 88 313.504 87.5001 300.504 87.3334 287.5 87.5 287.5 118.167 287.5 148.833 287.5 179.5 324.502 179.667 361.502 179.5 398.5 179 410.889 151.52 431.889 141.187 461.5 148 482.434 156.617 493.767 172.283 495.5 195 493.332 221.5 479.332 237.833 453.5 244 426.928 246.553 408.594 235.553 398.5 211 361.502 210.5 324.502 210.333 287.5 210.5 287.5 240.5 287.5 270.5 287.5 300.5 324.502 300.667 361.502 300.5 398.5 300 408.594 275.447 426.928 264.447 453.5 267 479.332 273.167 493.332 289.5 495.5 316 490.425 352.199 469.758 368.199 433.5 364 416.424 359.258 404.757 348.591 398.5 332 361.502 331.5 324.502 331.333 287.5 331.5 287.5 362.167 287.5 392.833 287.5 423.5 300.504 423.667 313.504 423.5 326.5 423 337.975 396.593 357.975 385.927 386.5 391 409.662 398.511 421.995 414.511 423.5 439 422.37 460.608 412.037 475.942 392.5 485 367.544 492.894 347.378 486.394 332 465.5 329.928 462.029 328.428 458.362 327.5 454.5 314.167 454.5 300.833 454.5 287.5 454.5 287.667 470.17 287.5 485.837 287 501.5 284.978 506.02 281.811 509.353 277.5 511.5 262.5 511.5 247.5 511.5 232.5 511.5 219.124 506.453 211.791 496.786 210.5 482.5 191.194 477.683 172.861 470.35 155.5 460.5 141.373 471.302 127.373 471.136 113.5 460 95.9385 443.107 79.1051 425.607 63 407.5 57.5463 394.936 59.0463 383.27 67.5 372.5 57.6647 355.163 50.3314 336.83 45.5 317.5 28.6696 315.502 18.8363 306.169 16 289.5 15.3333 266.833 15.3333 244.167 16 221.5 18.8363 204.831 28.6696 195.498 45.5 193.5 50.3314 174.17 57.6647 155.837 67.5 138.5 56.6908 124.332 56.8575 110.332 68 96.5 83.1667 81.3333 98.3333 66.1667 113.5 51 127.408 39.9798 141.408 39.8132 155.5 50.5 172.861 40.6498 191.194 33.3165 210.5 28.5 211.791 14.2139 219.124 4.54725 232.5-0.5ZM241.5 29.5C246.5 29.5 251.5 29.5 256.5 29.5 256.5 57.8333 256.5 86.1667 256.5 114.5 201.01 122.503 162.177 152.17 140 203.5 120.671 259.824 130.671 310.158 170 354.5 193.856 378.51 222.689 392.51 256.5 396.5 256.5 424.833 256.5 453.167 256.5 481.5 251.5 481.5 246.5 481.5 241.5 481.5 240.862 468.368 234.529 459.201 222.5 454 202.023 448.731 182.69 440.731 164.5 430 153.508 427.04 143.675 429.207 135 436.5 120.5 422 106 407.5 91.5 393 98.5089 384.624 100.676 375.124 98 364.5 87.3277 345.156 78.9943 324.822 73 303.5 67.7027 292.429 58.8693 286.762 46.5 286.5 46.5 265.833 46.5 245.167 46.5 224.5 58.8693 224.238 67.7027 218.571 73 207.5 78.9943 186.178 87.3277 165.844 98 146.5 100.676 135.876 98.5089 126.376 91.5 118 106 103.5 120.5 89 135 74.5 144.411 82.4768 154.911 84.3102 166.5 80 184.108 69.7964 202.774 62.1297 222.5 57 234.518 51.807 240.852 42.6403 241.5 29.5ZM370.5 53.5C384.977 53.809 392.143 61.1423 392 75.5 387.198 89.3182 378.031 93.4849 364.5 88 355.397 81.3447 353.23 72.8447 358 62.5 361.299 58.1179 365.466 55.1179 370.5 53.5ZM254.5 145.5C255.833 181.827 256.5 218.494 256.5 255.5 256.167 292.167 255.833 328.833 255.5 365.5 212.082 356.915 182.582 331.915 167 290.5 153.984 243.226 165.484 203.059 201.5 170 217.206 157.479 234.873 149.312 254.5 145.5ZM442.5 176.5C455.152 176.328 462.486 182.495 464.5 195 462.374 208.129 454.708 214.129 441.5 213 430.429 209.033 425.929 201.2 428 189.5 430.584 182.487 435.417 178.154 442.5 176.5ZM441.5 297.5C454.669 296.836 462.336 303.003 464.5 316 460.945 331.569 451.612 336.902 436.5 332 426.751 324.527 424.918 315.36 431 304.5 433.998 301.262 437.498 298.929 441.5 297.5ZM369.5 420.5C381.133 419.299 388.633 424.299 392 435.5 392.167 450 385 457.167 370.5 457 356.682 452.198 352.515 443.031 358 429.5 361.045 425.406 364.878 422.406 369.5 420.5Z" fill="#FFFFFF" fill-opacity="0.97" opacity="0.965"/></g></svg>