<svg width="512" height="512" xmlns="http://www.w3.org/2000/svg" xmlns:xlink="http://www.w3.org/1999/xlink" fill-rule="evenodd" clip-rule="evenodd" overflow="hidden"><g><path d="M203.5 15.5C238.92 15.0133 274.253 15.5133 309.5 17 310.126 17.7504 310.626 18.5838 311 19.5 311.5 39.4972 311.667 59.4972 311.5 79.5 306.167 79.5 300.833 79.5 295.5 79.5 295.5 63.5 295.5 47.5 295.5 31.5 268.833 31.5 242.167 31.5 215.5 31.5 215.98 54.9237 215.48 78.257 214 101.5 203.015 106.718 191.849 111.552 180.5 116 177.833 116.667 175.167 116.667 172.5 116 156.862 101.362 141.529 86.3625 126.5 71 125.833 70.3333 125.167 70.3333 124.5 71 106.319 89.0138 88.3194 107.181 70.5 125.5 85.8484 141.015 101.015 156.681 116 172.5 116.667 175.167 116.667 177.833 116 180.5 111.609 191.616 106.942 202.616 102 213.5 101.25 214.126 100.416 214.626 99.5 215 76.8358 215.5 54.1691 215.667 31.5 215.5 31.5 242.167 31.5 268.833 31.5 295.5 51.5 295.5 71.5 295.5 91.5 295.5 88.3845 282.355 87.0511 269.022 87.5 255.5 93.1667 255.5 98.8333 255.5 104.5 255.5 107.004 320.697 137.67 367.197 196.5 395 243.15 413.251 288.483 410.251 332.5 386 341.066 380.769 349.066 374.769 356.5 368 317.833 367.667 279.167 367.333 240.5 367 190.944 358.443 159.444 329.943 146 281.5 136.991 233.517 151.491 194.35 189.5 164 191.333 162.833 193.167 161.667 195 160.5 198.414 164.994 201.581 169.66 204.5 174.5 180.977 190.035 166.643 211.701 161.5 239.5 170.173 239.666 178.84 239.5 187.5 239 199.333 227.167 211.167 215.333 223 203.5 223.043 192.07 223.71 180.737 225 169.5 225.75 168.874 226.584 168.374 227.5 168 238.167 167.667 248.833 167.333 259.5 167 268.667 157.833 277.833 148.667 287 139.5 287.333 128.833 287.667 118.167 288 107.5 288.374 106.584 288.874 105.75 289.5 105 300.737 103.71 312.07 103.043 323.5 103 332.667 93.8333 341.833 84.6667 351 75.5 351.333 64.8333 351.667 54.1667 352 43.5 352.374 42.5838 352.874 41.7504 353.5 41 364.737 39.7097 376.07 39.043 387.5 39 395.197 30.9689 403.197 23.3022 411.5 16 439.498 15.5 467.498 15.3334 495.5 15.5 495.5 20.8333 495.5 26.1667 495.5 31.5 470.164 31.3334 444.831 31.5 419.5 32 413 38.5 406.5 45 400 51.5 399.957 62.9302 399.29 74.2635 398 85.5 397.25 86.1258 396.416 86.6258 395.5 87 384.833 87.3333 374.167 87.6667 363.5 88 354.333 97.1667 345.167 106.333 336 115.5 335.957 126.93 335.29 138.263 334 149.5 333.25 150.126 332.416 150.626 331.5 151 320.833 151.333 310.167 151.667 299.5 152 290.333 161.167 281.167 170.333 272 179.5 271.667 190.167 271.333 200.833 271 211.5 270.626 212.416 270.126 213.25 269.5 214 258.263 215.29 246.93 215.957 235.5 216 222.471 229.363 209.138 242.363 195.5 255 183.838 255.5 172.171 255.667 160.5 255.5 160.112 266.171 161.778 276.504 165.5 286.5 184.822 287.5 204.155 287.833 223.5 287.5 223.333 275.495 223.5 263.495 224 251.5 224.374 250.584 224.874 249.75 225.5 249 246.075 247.523 266.741 247.023 287.5 247.5 287.333 230.163 287.5 212.83 288 195.5 288.374 194.584 288.874 193.75 289.5 193 310.075 191.523 330.741 191.023 351.5 191.5 351.333 176.83 351.5 162.163 352 147.5 352.374 146.584 352.874 145.75 353.5 145 374.075 143.523 394.741 143.023 415.5 143.5 415.333 123.497 415.5 103.497 416 83.5 416.374 82.5838 416.874 81.7504 417.5 81 442.079 79.3531 466.746 79.0198 491.5 80 493.333 80.5 494.5 81.6667 495 83.5 495.995 177.581 495.662 271.581 494 365.5 493.25 366.126 492.416 366.626 491.5 367 477.167 367.333 462.833 367.667 448.5 368 453.034 372.199 457.201 376.699 461 381.5 461.817 384.964 461.483 388.298 460 391.5 436.805 415.028 413.305 438.195 389.5 461 386.036 461.817 382.702 461.483 379.5 460 364.167 444.667 348.833 429.333 333.5 414 332.167 413.333 330.833 413.333 329.5 414 323.947 416.61 318.281 418.943 312.5 421 311.672 444.427 311.172 467.927 311 491.5 310.5 493.333 309.333 494.5 307.5 495 272.082 495.986 236.748 495.653 201.5 494 200.874 493.25 200.374 492.416 200 491.5 199.667 468.167 199.333 444.833 199 421.5 192.25 418.694 185.583 415.694 179 412.5 163.167 428.333 147.333 444.167 131.5 460 127.5 462 123.5 462 119.5 460 95.9716 436.805 72.8049 413.305 50 389.5 49.1834 386.036 49.5167 382.702 51 379.5 66.3333 364.167 81.6667 348.833 97 333.5 97.6667 332.167 97.6667 330.833 97 329.5 94.6667 323.833 92.3333 318.167 90 312.5 66.5725 311.672 43.0725 311.172 19.5 311 17.6667 310.5 16.5 309.333 16 307.5 15.3333 272.833 15.3333 238.167 16 203.5 16.5 201.667 17.6667 200.5 19.5 200 43.0725 199.828 66.5725 199.328 90 198.5 92.3333 192.833 94.6667 187.167 97 181.5 97.6667 180.167 97.6667 178.833 97 177.5 81.6667 162.167 66.3333 146.833 51 131.5 49.5167 128.298 49.1834 124.964 50 121.5 72.8049 97.6947 95.9716 74.1947 119.5 51 123.5 49 127.5 49 131.5 51 146.833 66.3333 162.167 81.6667 177.5 97 184.934 95.5458 192.101 93.0458 199 89.5 199.333 66.1667 199.667 42.8333 200 19.5 200.69 17.6498 201.856 16.3164 203.5 15.5ZM367.5 55.5C372.833 55.5 378.167 55.5 383.5 55.5 383.5 60.8333 383.5 66.1667 383.5 71.5 378.167 71.5 372.833 71.5 367.5 71.5 367.5 66.1667 367.5 60.8333 367.5 55.5ZM431.5 95.5C447.5 95.5 463.5 95.5 479.5 95.5 479.5 180.833 479.5 266.167 479.5 351.5 463.5 351.5 447.5 351.5 431.5 351.5 431.5 266.167 431.5 180.833 431.5 95.5ZM303.5 119.5C308.833 119.5 314.167 119.5 319.5 119.5 319.5 124.833 319.5 130.167 319.5 135.5 314.167 135.5 308.833 135.5 303.5 135.5 303.5 130.167 303.5 124.833 303.5 119.5ZM367.5 159.5C383.5 159.5 399.5 159.5 415.5 159.5 415.5 223.5 415.5 287.5 415.5 351.5 399.5 351.5 383.5 351.5 367.5 351.5 367.5 287.5 367.5 223.5 367.5 159.5ZM239.5 183.5C244.833 183.5 250.167 183.5 255.5 183.5 255.5 188.833 255.5 194.167 255.5 199.5 250.167 199.5 244.833 199.5 239.5 199.5 239.5 194.167 239.5 188.833 239.5 183.5ZM303.5 207.5C319.5 207.5 335.5 207.5 351.5 207.5 351.5 255.5 351.5 303.5 351.5 351.5 335.5 351.5 319.5 351.5 303.5 351.5 303.5 303.5 303.5 255.5 303.5 207.5ZM239.5 263.5C255.5 263.5 271.5 263.5 287.5 263.5 287.5 292.833 287.5 322.167 287.5 351.5 271.437 351.862 255.437 351.195 239.5 349.5 239.5 320.833 239.5 292.167 239.5 263.5ZM173.5 304.5C189.992 303.503 206.658 303.17 223.5 303.5 223.667 317.504 223.5 331.504 223 345.5 201.852 337.356 185.352 323.69 173.5 304.5ZM111.5 343.5C125.642 366.475 144.308 384.975 167.5 399 153.653 413.014 139.653 426.847 125.5 440.5 106.833 422.5 88.5 404.167 70.5 385.5 84.1879 371.479 97.8546 357.479 111.5 343.5ZM381.5 367.5C395.504 367.333 409.504 367.5 423.5 368 429.348 373.681 435.015 379.515 440.5 385.5 422.5 404.167 404.167 422.5 385.5 440.5 371.5 427.167 357.833 413.5 344.5 399.5 358.034 390.305 370.367 379.639 381.5 367.5ZM215.5 419.5C242.167 424.833 268.833 424.833 295.5 419.5 295.5 439.5 295.5 459.5 295.5 479.5 268.833 479.5 242.167 479.5 215.5 479.5 215.5 459.5 215.5 439.5 215.5 419.5Z" fill="#FFFFFF" fill-opacity="0.97" opacity="0.968"/></g></svg>