<svg width="512" height="512" xmlns="http://www.w3.org/2000/svg" xmlns:xlink="http://www.w3.org/1999/xlink" fill-rule="evenodd" clip-rule="evenodd" overflow="hidden"><g><path d="M9.5-0.5C18.8333-0.5 28.1667-0.5 37.5-0.5 42.789 1.29213 46.289 4.95879 48 10.5 48.4998 20.1609 48.6665 29.8276 48.5 39.5 54.9522 39.0845 61.2855 39.5845 67.5 41 71.5 45.3333 71.5 49.6667 67.5 54 57.5998 55.6154 47.5998 55.9487 37.5 55 36.0692 54.5348 34.9025 53.7014 34 52.5 32.5402 40.267 32.0402 27.9337 32.5 15.5 26.8333 15.5 21.1667 15.5 15.5 15.5 15.3333 172.167 15.5 328.834 16 485.5 18.4511 491.616 22.9511 495.116 29.5 496 149.5 496.333 269.5 496.667 389.5 497 392.366 498.393 393.699 500.726 393.5 504 393.57 507.366 392.237 509.866 389.5 511.5 267.167 511.5 144.833 511.5 22.5 511.5 11.1753 507.509 3.5086 499.842-0.5 488.5-0.5 328.833-0.5 169.167-0.5 9.5 1.83333 5.16667 5.16667 1.83333 9.5-0.5Z" fill="#FFFFFF" opacity="0.958"/></g><g><path d="M388.5-0.5C395.167-0.5 401.833-0.5 408.5-0.5 423.379 3.70862 434.379 12.7086 441.5 26.5 473.704 28.3686 491.704 45.3686 495.5 77.5 495.155 81.2383 494.488 84.905 493.5 88.5 502.324 96.4958 508.324 106.162 511.5 117.5 511.5 123.5 511.5 129.5 511.5 135.5 505.706 156.456 492.039 168.956 470.5 173 454.802 172.591 440.135 176.258 426.5 184 413.712 194.557 399.045 201.057 382.5 203.5 377.632 203.135 374.966 200.469 374.5 195.5 374.833 192.99 375.833 190.823 377.5 189 385.626 186.736 393.626 184.069 401.5 181 411.928 173.118 423.261 166.784 435.5 162 449.031 158.788 462.697 156.455 476.5 155 496.59 143.391 500.757 127.558 489 107.5 476.035 94.6834 461.869 93.1834 446.5 103 440.198 110.303 433.532 117.303 426.5 124 415.234 132.979 402.567 135.979 388.5 133 380.157 130.44 378.49 125.607 383.5 118.5 385.183 117.408 387.016 116.741 389 116.5 398.576 119.566 407.41 118.066 415.5 112 422.199 105.636 428.532 98.9692 434.5 92 446.519 81.7033 460.352 78.2033 476 81.5 478.32 81.1999 479.487 79.8666 479.5 77.5 477.639 60.9013 468.972 49.7347 453.5 44 447.717 43.2076 442.05 43.7076 436.5 45.5 434.701 45.423 433.034 44.923 431.5 44 428.818 38.9722 426.318 33.8055 424 28.5 413.708 15.3992 400.875 11.8992 385.5 18 383.5 19.3333 381.5 20.6667 379.5 22 387.539 26.0428 394.372 31.5428 400 38.5 402.668 45.1634 400.502 49.4968 393.5 51.5 392.205 50.9017 390.872 50.4017 389.5 50 361.919 23.5833 332.585 21.5833 301.5 44 288.818 54.1975 281.485 67.3642 279.5 83.5 280 83.8333 280.5 84.1667 281 84.5 305.045 75.6322 324.712 81.2989 340 101.5 341.495 111.009 337.661 114.509 328.5 112 314.846 94.6457 298.846 91.979 280.5 104 266.615 120.272 267.282 135.939 282.5 151 284.67 152.586 287.004 153.92 289.5 155 295.437 156.318 301.27 157.818 307 159.5 309.175 167.197 311.508 174.863 314 182.5 316.26 187.356 319.26 191.689 323 195.5 323.667 197.833 323.667 200.167 323 202.5 321.396 207.81 319.896 213.144 318.5 218.5 318.989 224.082 321.989 226.249 327.5 225 328.667 223.833 329.833 222.667 331 221.5 337.272 202.017 343.939 182.684 351 163.5 355.063 158.801 359.396 158.468 364 162.5 365.457 165.366 365.79 168.366 365 171.5 358.197 191.575 351.197 211.575 344 231.5 335.817 241.709 325.651 244.209 313.5 239 306.221 234.55 302.554 228.05 302.5 219.5 302.806 213.44 304.14 207.607 306.5 202 300.252 193.093 296.252 183.259 294.5 172.5 273.019 168.52 259.853 155.854 255 134.5 253.022 120.111 256.522 107.278 265.5 96 261.885 76.9598 266.052 59.7931 278 44.5 300.765 18.2741 329.099 8.60748 363 15.5 369.896 7.47594 378.396 2.14261 388.5-0.5Z" fill="#FFFFFF" opacity="0.925"/></g><g><path d="M340.5 48.5C357.421 48.3776 370.921 55.0443 381 68.5 387.783 64.5342 394.783 63.8675 402 66.5 405.536 72.2245 404.369 76.7245 398.5 80 389.688 80.8217 382.522 84.655 377 91.5 374.868 95.9105 372.368 100.077 369.5 104 360.211 106.29 356.378 102.79 358 93.5 359.774 87.4471 362.941 82.2804 367.5 78 360.415 69.0627 351.082 64.0627 339.5 63 336.606 60.0913 335.773 56.5913 337 52.5 337.69 50.6498 338.856 49.3164 340.5 48.5Z" fill="#FFFFFF" opacity="0.916"/></g><g><path d="M511.5 472.5C511.5 482.167 511.5 491.833 511.5 501.5 509.167 505.833 505.833 509.167 501.5 511.5 473.167 511.5 444.833 511.5 416.5 511.5 411.402 506.607 411.402 501.774 416.5 497 442.831 496.5 469.165 496.333 495.5 496.5 495.5 490.5 495.5 484.5 495.5 478.5 342.086 478.997 188.753 478.497 35.5 477 34.2986 476.097 33.4652 474.931 33 473.5 32.3333 342.167 32.3333 210.833 33 79.5 36.9135 73.8577 41.5802 73.1911 47 77.5 48.4204 84.0496 48.9204 90.7163 48.5 97.5 54.5092 97.3338 60.5092 97.5005 66.5 98 71.4459 102.3 71.7793 106.967 67.5 112 61.2584 113.37 54.9251 113.87 48.5 113.5 48.5 127.167 48.5 140.833 48.5 154.5 54.9251 154.13 61.2584 154.63 67.5 156 71.7793 161.033 71.4459 165.7 66.5 170 60.5092 170.499 54.5092 170.666 48.5 170.5 48.5 184.5 48.5 198.5 48.5 212.5 54.5092 212.334 60.5092 212.501 66.5 213 72.0804 218.486 71.747 223.486 65.5 228 59.8431 228.499 54.1764 228.666 48.5 228.5 48.5 242.167 48.5 255.833 48.5 269.5 54.5933 269.139 60.5933 269.639 66.5 271 70.2115 273.513 71.3782 277.013 70 281.5 69.1667 283 68 284.167 66.5 285 60.5092 285.499 54.5092 285.666 48.5 285.5 48.5 299.5 48.5 313.5 48.5 327.5 54.1764 327.334 59.8431 327.501 65.5 328 70.5352 331.013 71.7019 335.18 69 340.5 68.0975 341.701 66.9308 342.535 65.5 343 59.8431 343.499 54.1764 343.666 48.5 343.5 48.5 357.5 48.5 371.5 48.5 385.5 54.5092 385.334 60.5092 385.501 66.5 386 71.8119 390.761 71.8119 395.428 66.5 400 60.5933 401.361 54.5933 401.861 48.5 401.5 48.3334 417.837 48.5001 434.17 49 450.5 123.167 376.333 197.333 302.167 271.5 228 276.413 225.413 280.58 226.247 284 230.5 284.79 233.634 284.457 236.634 283 239.5 208.833 313.667 134.667 387.833 60.5 462 76.1631 462.5 91.8298 462.667 107.5 462.5 107.334 456.824 107.501 451.157 108 445.5 111.013 440.465 115.18 439.298 120.5 442 121.701 442.903 122.535 444.069 123 445.5 123.499 451.157 123.666 456.824 123.5 462.5 137.5 462.5 151.5 462.5 165.5 462.5 165.334 456.491 165.501 450.491 166 444.5 170.713 439.182 175.38 439.182 180 444.5 181.361 450.407 181.861 456.407 181.5 462.5 195.167 462.5 208.833 462.5 222.5 462.5 222.334 456.824 222.501 451.157 223 445.5 226.013 440.465 230.18 439.298 235.5 442 236.701 442.903 237.535 444.069 238 445.5 238.499 451.157 238.666 456.824 238.5 462.5 252.5 462.5 266.5 462.5 280.5 462.5 280.334 456.491 280.501 450.491 281 444.5 287.006 438.67 292.006 439.337 296 446.5 296.499 451.823 296.666 457.156 296.5 462.5 310.167 462.5 323.833 462.5 337.5 462.5 337.334 457.156 337.501 451.823 338 446.5 341.994 439.337 346.994 438.67 353 444.5 353.499 450.491 353.666 456.491 353.5 462.5 367.5 462.5 381.5 462.5 395.5 462.5 395.334 456.824 395.501 451.157 396 445.5 399.013 440.465 403.18 439.298 408.5 442 409.701 442.903 410.535 444.069 411 445.5 411.499 451.157 411.666 456.824 411.5 462.5 425.167 462.5 438.833 462.5 452.5 462.5 452.139 456.407 452.639 450.407 454 444.5 458.62 439.182 463.287 439.182 468 444.5 468.499 450.491 468.666 456.491 468.5 462.5 478.839 462.334 489.172 462.5 499.5 463 505.181 464.194 509.181 467.36 511.5 472.5Z" fill="#FFFFFF" opacity="0.936"/></g><g><path d="M236.5 168.5C255.468 169.631 264.301 179.631 263 198.5 256.869 216.558 244.702 222.391 226.5 216 211.899 204.944 209.732 191.777 220 176.5 224.885 172.306 230.385 169.639 236.5 168.5ZM237.5 184.5C243.597 184.764 246.931 187.931 247.5 194 245.501 201.666 240.834 204 233.5 201 227.515 193.787 228.849 188.287 237.5 184.5Z" fill="#FFFFFF" opacity="0.926"/></g><g><path d="M96.5 334.5C104.696 334.529 107.863 338.529 106 346.5 101.7 351.446 97.033 351.779 92 347.5 89.5522 341.74 91.0522 337.407 96.5 334.5Z" fill="#FFFFFF" opacity="0.853"/></g><g><path d="M216.5 344.5C236.976 344.142 246.81 354.142 246 374.5 240.933 390.62 230.1 396.787 213.5 393 201.5 387.847 196 378.681 197 365.5 199.246 354.424 205.746 347.424 216.5 344.5ZM218.5 360.5C228.372 360.527 231.872 365.194 229 374.5 221.217 380.529 215.717 378.863 212.5 369.5 213.284 365.573 215.284 362.573 218.5 360.5Z" fill="#FFFFFF" opacity="0.927"/></g></svg>