<svg width="512" height="512" xmlns="http://www.w3.org/2000/svg" xmlns:xlink="http://www.w3.org/1999/xlink" fill-rule="evenodd" clip-rule="evenodd" overflow="hidden"><g><path d="M234.5 31.5C296.803 26.8825 351.969 44.2158 400 83.5 403.573 93.5884 400.073 98.0884 389.5 97 325.268 45.7407 254.602 34.7407 177.5 64 104.755 96.0851 62.0885 151.418 49.5 230 42.6172 305.049 67.6172 367.049 124.5 416 189.229 465.9 259.895 476.234 336.5 447 409.778 411.666 451.611 353.499 462 272.5 466.503 215.469 450.503 165.136 414 121.5 412.5 112.333 416.333 108.5 425.5 110 447.582 134.646 463.082 163.146 472 195.5 493.463 288.098 468.963 365.932 398.5 429 336.586 476.917 267.586 490.917 191.5 471 123.978 448.48 75.8115 404.647 47 339.5 24.9543 280.814 25.9543 222.481 50 164.5 87.5858 87.0924 149.086 42.7591 234.5 31.5ZM249.5 224.5C275.038 223.87 287.205 236.203 286 261.5 281.021 279.464 269.188 287.631 250.5 286 231.447 281.271 222.947 269.104 225 249.5 228.014 235.987 236.181 227.653 249.5 224.5ZM211.5 231.5C212.239 231.369 212.906 231.536 213.5 232 205.9 246.978 205.567 262.145 212.5 277.5 212 277.833 211.5 278.167 211 278.5 196.516 273.499 183.683 265.833 172.5 255.5 184.091 245.205 197.091 237.205 211.5 231.5ZM298.5 232.5C313.697 237.093 327.031 244.76 338.5 255.5 326.995 266.255 313.662 273.922 298.5 278.5 305.167 263.167 305.167 247.833 298.5 232.5Z" fill="#FFFFFF" opacity="0.929"/></g><g><path d="M222.5 87.5C235.109 85.4426 246.276 88.4426 256 96.5 265.618 87.9761 276.784 85.1427 289.5 88 302.839 91.3349 312.172 99.3349 317.5 112 342.239 110.076 358.405 120.91 366 144.5 366.499 149.155 366.666 153.821 366.5 158.5 383.901 162.737 394.401 173.737 398 191.5 399.917 201.947 398.084 211.613 392.5 220.5 411.381 236.738 415.214 256.071 404 278.5 400.833 283 397 286.833 392.5 290 403.288 311.235 399.954 329.902 382.5 346 377.716 349.56 372.383 351.727 366.5 352.5 367.648 375.043 357.648 390.209 336.5 398 330.19 399.6 323.857 399.933 317.5 399 310.456 415.285 297.956 423.452 280 423.5 270.523 424.009 262.356 421.009 255.5 414.5 245.657 422.941 234.324 425.775 221.5 423 208.161 419.665 198.828 411.665 193.5 399 161.111 400.445 144.778 384.945 144.5 352.5 131.412 349.923 121.912 342.59 116 330.5 114.67 320.833 118.836 316.999 128.5 319 131.037 321.906 133.204 325.073 135 328.5 141.491 334.887 149.325 337.721 158.5 337 162.833 338.161 164.833 340.995 164.5 345.5 157.371 365.356 164.037 377.69 184.5 382.5 189.069 381.699 193.402 380.199 197.5 378 201.07 377.196 204.237 378.03 207 380.5 207.63 389.41 211.13 396.91 217.5 403 225.833 407.667 234.167 407.667 242.5 403 244.378 401.457 245.878 399.624 247 397.5 247.5 366.168 247.667 334.835 247.5 303.5 210.677 301.181 179.177 287.181 153 261.5 151.517 258.298 151.183 254.964 152 251.5 177.848 224.333 209.681 209.666 247.5 207.5 247.667 176.165 247.5 144.832 247 113.5 241.537 105.527 234.037 102.693 224.5 105 218.543 106.623 214.043 110.123 211 115.5 209.559 120.493 208.225 125.493 207 130.5 205.581 131.46 204.081 132.293 202.5 133 196.495 131.85 190.495 130.35 184.5 128.5 164.033 133.313 157.367 145.647 164.5 165.5 164.833 170.005 162.833 172.839 158.5 174 137.904 173.926 128.404 184.093 130 204.5 130.725 206.949 131.725 209.283 133 211.5 135.706 213.871 138.039 216.537 140 219.5 140.929 223.244 140.429 226.744 138.5 230 117.545 238.731 112.712 252.898 124 272.5 127.968 275.902 132.468 278.402 137.5 280 140.829 284.137 141.329 288.637 139 293.5 134.64 295.984 130.14 296.15 125.5 294 109.127 286.269 100.794 273.269 100.5 255 101.124 240.582 107.124 229.082 118.5 220.5 107.805 199.466 111.139 180.966 128.5 165 133.284 161.44 138.617 159.273 144.5 158.5 143.313 133.853 154.647 118.353 178.5 112 183.535 111.582 188.535 111.582 193.5 112 198.843 98.6687 208.51 90.502 222.5 87.5ZM274.5 104.5C292.858 103.353 302.692 112.019 304 130.5 305.419 131.46 306.919 132.293 308.5 133 312.698 133.05 316.698 132.05 320.5 130 337.151 127.824 346.818 134.991 349.5 151.5 348.81 156.257 347.81 160.924 346.5 165.5 346.181 170.044 348.181 172.877 352.5 174 373.127 173.956 382.627 184.123 381 204.5 380.275 206.949 379.275 209.283 378 211.5 375.294 213.871 372.961 216.537 371 219.5 369.849 223.829 370.682 227.662 373.5 231 392.402 238.382 397.569 251.215 389 269.5 385.097 274.868 379.93 278.368 373.5 280 370.682 283.338 369.849 287.171 371 291.5 382.534 301.883 384.534 313.883 377 327.5 370.407 334.589 362.241 337.755 352.5 337 348.167 338.161 346.167 340.995 346.5 345.5 353.621 365.362 346.954 377.696 326.5 382.5 321.094 381.545 315.927 379.879 311 377.5 308.679 377.909 306.513 378.743 304.5 380 303.029 386.37 300.862 392.537 298 398.5 286.289 410.446 274.956 410.113 264 397.5 263.5 366.168 263.333 334.835 263.5 303.5 300.328 301.18 331.828 287.18 358 261.5 360.763 255.415 359.596 250.248 354.5 246 328.701 222.776 298.368 209.942 263.5 207.5 263.333 176.165 263.5 144.832 264 113.5 266.468 109.199 269.968 106.199 274.5 104.5ZM249.5 224.5C236.181 227.653 228.014 235.987 225 249.5 222.947 269.104 231.447 281.271 250.5 286 269.188 287.631 281.021 279.464 286 261.5 287.205 236.203 275.038 223.87 249.5 224.5ZM211.5 231.5C197.091 237.205 184.091 245.205 172.5 255.5 183.683 265.833 196.516 273.499 211 278.5 211.5 278.167 212 277.833 212.5 277.5 205.567 262.145 205.9 246.978 213.5 232 212.906 231.536 212.239 231.369 211.5 231.5ZM298.5 232.5C313.697 237.093 327.031 244.76 338.5 255.5 326.995 266.255 313.662 273.922 298.5 278.5 305.167 263.167 305.167 247.833 298.5 232.5Z" fill="#FFFFFF" opacity="0.94"/></g></svg>